<svg width="641" height="223" xmlns="http://www.w3.org/2000/svg">
 <defs>
  <linearGradient gradientTransform="matrix(1,0,0,-1,-94.61056518554688,517.5576629638672)" y2="413.1" x2="241.97" y1="413.1" x1="95.54" gradientUnits="userSpaceOnUse" id="svg_3">
   <stop stop-color="#F2F2F2" stop-opacity="0" offset="0.24"/>
   <stop stop-color="#8D8D8D" stop-opacity="0.53" offset="0.54"/>
   <stop stop-color="#4A4A4A" stop-opacity="0.88" offset="0.8"/>
   <stop stop-color="#333333" offset="1"/>
  </linearGradient>
 </defs>
 <g>
  <title>Layer 1</title>
  <g>
   <title>Logo Melody_def</title>
   <g>
    <g id="svg_2">
     <path fill="#FFFFFF" d="m179.58944,73.15766l34.4,0c12.9,0 23.6,4.4 32.2,13.2s12.9,19.9 12.9,33.3c0,13.3 -4.3,24.4 -12.8,33.3s-19.3,13.3 -32.3,13.3l-34.4,0l0,-93.1zm15.2,78l18.9,0c8,0.2 15.8,-3.1 21.2,-9c5.6,-6 8.5,-13.5 8.5,-22.5c0,-9 -2.8,-16.5 -8.5,-22.5c-5.4,-5.9 -13.2,-9.2 -21.2,-9l-18.9,0l0,63z" class="st0"/>
     <path fill="#FFFFFF" d="m299.58944,167.95766c-10.1,0 -18.4,-3.4 -25,-10.3c-6.6,-6.9 -9.9,-15.5 -10,-25.8c0,-10.2 3.3,-18.8 10,-25.7c6.7,-6.9 15,-10.3 25,-10.3c10,0 18.3,3.4 25,10.3c6.7,6.9 10,15.4 10,25.7c0,10.3 -3.3,18.9 -10,25.8c-6.7,6.8 -15,10.3 -25,10.3zm-14.5,-20.8c3.7,4 9,6.2 14.4,6.1c5.4,0.1 10.7,-2.1 14.4,-6.1c7.7,-8.8 7.7,-21.9 0,-30.6c-3.7,-4 -8.9,-6.2 -14.4,-6.1c-5.5,-0.1 -10.7,2.1 -14.4,6.1c-7.8,8.7 -7.8,21.9 0,30.6l0,0z" class="st0"/>
     <path fill="#FFFFFF" d="m344.18944,73.15766l34.3,0c12.9,0 23.6,4.4 32.2,13.2c8.6,8.8 12.9,19.9 12.8,33.3c0,13.3 -4.3,24.4 -12.8,33.3s-19.3,13.3 -32.3,13.3l-34.3,0l0,-93.1l0.1,0zm15.2,78l18.9,0c8,0.2 15.8,-3.1 21.2,-9c5.6,-6 8.5,-13.5 8.5,-22.5c0,-9 -2.8,-16.5 -8.5,-22.5c-5.4,-5.9 -13.2,-9.2 -21.2,-9l-18.9,0l0,63z" class="st0"/>
     <path fill="#FFFFFF" d="m476.58944,136.55766l0,-39l14.3,0l0,68.8l-14.3,0l0,-9.2c-5,7.2 -12,10.8 -20.9,10.8c-7.5,0 -13.6,-2.4 -18.1,-7.3c-4.6,-4.9 -6.9,-11.3 -6.9,-19.3l0,-43.8l14.4,0l0,39.4c0,5 1.4,9 4.2,11.9s6.5,4.4 11.1,4.4c4.9,0 8.9,-1.5 11.8,-4.6s4.5,-7.1 4.4,-12.1z" class="st0"/>
     <path fill="#FFFFFF" d="m568.18944,132.05766c0,1.9 -0.1,3.8 -0.4,5.7l-54.2,0c0.8,4.7 3.3,8.9 6.9,12.1c3.6,3 8.1,4.7 12.8,4.5c3.8,0.1 7.6,-0.9 10.9,-2.7c3,-1.6 5.5,-4.1 7,-7.2l15.6,0c-2.3,6.9 -6.7,12.9 -12.7,17c-6.1,4.4 -13.5,6.7 -21.1,6.5c-10,0 -18.3,-3.4 -24.9,-10.3c-6.6,-6.9 -9.9,-15.5 -10,-25.8c0,-10.2 3.3,-18.8 10,-25.7c6.7,-6.9 15,-10.3 24.9,-10.3c10,0 18.4,3.4 25.1,10.3s10.1,15.5 10.1,25.9zm-22.7,-18.3c-7.2,-5.7 -17.4,-5.7 -24.7,0c-3.6,2.9 -6.1,7 -7.1,11.5l38.9,0c-1,-4.5 -3.5,-8.6 -7.1,-11.5z" class="st0"/>
     <path fill="#FFFFFF" d="m595.88944,97.55766l14,0l0,13.7l-14,0l0,55.1l-14.4,0l0,-55.1l-13.2,0l0,-13.7l13.2,0l0,-17.1l14.4,-3.2l0,20.3z" class="st0"/>
     <path fill="#FFFFFF" d="m147.38944,1.05766c-23.9,0 -43.3,19.4 -43.3,43.3l0,0l0,104.4l0,0c0,16.5 -13.4,29.9 -29.9,29.9c-16.5,0 -29.9,-13.4 -29.9,-29.9s13.4,-29.9 29.9,-29.9c7.5,0 14.8,2.8 20.3,7.9l0,-48.4c-38.8,-11.2 -79.4,11.2 -90.6,50.1s11.2,79.4 50.1,90.6s79.4,-11.2 90.6,-50.1c1.9,-6.6 2.9,-13.4 2.9,-20.3l0,-147.6l-0.1,0z" class="st0"/>
     <path fill="url(#svg_3)" d="m74.18944,75.55766c-34.5,0.1 -64.3,24.1 -71.6,57.8l46,0c8.5,-14.1 26.9,-18.7 41.1,-10.1c1.7,1 3.3,2.3 4.8,3.6l0,-48.4c-6.6,-1.9 -13.5,-2.9 -20.3,-2.9z" class="st1"/>
     <path fill="#FFFFFF" d="m621.08944,80.05766c4.1,-4.3 10.9,-4.5 15.2,-0.5c0.2,0.1 0.3,0.3 0.5,0.5c2.1,2.2 3.3,5.2 3.2,8.2c0.1,3.1 -1.1,6 -3.2,8.3c-4,4.3 -10.7,4.6 -15,0.6c-0.2,-0.2 -0.4,-0.4 -0.6,-0.6c-2.1,-2.2 -3.3,-5.2 -3.2,-8.2c-0.2,-3.2 1,-6.1 3.1,-8.3zm1.7,14.6c1.6,1.7 3.8,2.7 6.1,2.6c2.3,0 4.5,-0.9 6.1,-2.6c1.6,-1.7 2.5,-4 2.5,-6.4c0.1,-2.4 -0.9,-4.7 -2.5,-6.4c-3.2,-3.4 -8.5,-3.5 -11.9,-0.3c-0.1,0.1 -0.2,0.2 -0.3,0.3c-3.3,3.6 -3.3,9.2 0,12.8l0,0zm10.8,-8.3c0.1,1.5 -0.7,2.8 -2.1,3.4l2.4,4.3l-2.6,0l-2.2,-3.9l-1.6,0l0,3.9l-2.5,0l0,-11.7l4.8,0c1,0 2,0.4 2.8,1.1c0.6,0.7 1,1.8 1,2.9zm-6.1,-1.7l0,3l2.1,0c0.4,0 0.8,-0.1 1.1,-0.4c0.3,-0.3 0.4,-0.7 0.4,-1.1c0,-0.4 -0.1,-0.8 -0.4,-1.1c-0.3,-0.3 -0.7,-0.5 -1.1,-0.4l-2.1,0z" class="st0"/>
    </g>
   </g>
  </g>
 </g>
</svg>